<mxfile host="65bd71144e">
    <diagram id="bHTJLvPFvvXJfZR5n1sB" name="Page-1">
        <mxGraphModel dx="785" dy="985" grid="0" gridSize="10" guides="1" tooltips="1" connect="1" arrows="1" fold="1" page="0" pageScale="1" pageWidth="850" pageHeight="1100" background="#ffffff" math="0" shadow="0">
            <root>
                <mxCell id="0"/>
                <mxCell id="1" parent="0"/>
                <mxCell id="11" style="edgeStyle=none;html=1;exitX=1;exitY=0.5;exitDx=0;exitDy=0;entryX=0;entryY=0.5;entryDx=0;entryDy=0;fontSize=14;" parent="1" source="2" target="5" edge="1">
                    <mxGeometry relative="1" as="geometry"/>
                </mxCell>
                <mxCell id="2" value="" style="ellipse;whiteSpace=wrap;html=1;aspect=fixed;fillColor=#dae8fc;strokeColor=#6c8ebf;fontSize=14;" parent="1" vertex="1">
                    <mxGeometry x="188" y="-1" width="40" height="40" as="geometry"/>
                </mxCell>
                <mxCell id="3" value="Initial Commit" style="text;html=1;strokeColor=none;fillColor=none;align=center;verticalAlign=middle;whiteSpace=wrap;rounded=0;fontSize=14;" parent="1" vertex="1">
                    <mxGeometry x="168" y="-31" width="80" height="30" as="geometry"/>
                </mxCell>
                <mxCell id="4" value="4e92" style="text;html=1;strokeColor=none;fillColor=none;align=center;verticalAlign=middle;whiteSpace=wrap;rounded=0;fontSize=14;" parent="1" vertex="1">
                    <mxGeometry x="178" y="39" width="60" height="30" as="geometry"/>
                </mxCell>
                <mxCell id="12" style="edgeStyle=none;html=1;exitX=1;exitY=0.5;exitDx=0;exitDy=0;entryX=0;entryY=0.5;entryDx=0;entryDy=0;fontSize=14;fillColor=#d5e8d4;strokeColor=#82b366;" parent="1" source="5" target="8" edge="1">
                    <mxGeometry relative="1" as="geometry"/>
                </mxCell>
                <mxCell id="5" value="" style="ellipse;whiteSpace=wrap;html=1;aspect=fixed;fillColor=#dae8fc;strokeColor=#6c8ebf;fontSize=14;" parent="1" vertex="1">
                    <mxGeometry x="308" y="-1" width="40" height="40" as="geometry"/>
                </mxCell>
                <mxCell id="6" value="add a" style="text;html=1;strokeColor=none;fillColor=none;align=center;verticalAlign=middle;whiteSpace=wrap;rounded=0;fontSize=14;" parent="1" vertex="1">
                    <mxGeometry x="288" y="-31" width="80" height="30" as="geometry"/>
                </mxCell>
                <mxCell id="24" style="edgeStyle=none;html=1;exitX=0.5;exitY=0;exitDx=0;exitDy=0;entryX=0;entryY=0.5;entryDx=0;entryDy=0;fontSize=14;fillColor=#fff2cc;strokeColor=#d6b656;" parent="1" source="7" target="17" edge="1">
                    <mxGeometry relative="1" as="geometry"/>
                </mxCell>
                <mxCell id="7" value="1f8d" style="text;html=1;strokeColor=none;fillColor=none;align=center;verticalAlign=middle;whiteSpace=wrap;rounded=0;fontSize=14;" parent="1" vertex="1">
                    <mxGeometry x="298" y="39" width="60" height="30" as="geometry"/>
                </mxCell>
                <mxCell id="8" value="" style="ellipse;whiteSpace=wrap;html=1;aspect=fixed;fillColor=#d5e8d4;strokeColor=#82b366;fontSize=14;" parent="1" vertex="1">
                    <mxGeometry x="428" y="-1" width="40" height="40" as="geometry"/>
                </mxCell>
                <mxCell id="9" value="add b" style="text;html=1;strokeColor=none;fillColor=none;align=center;verticalAlign=middle;whiteSpace=wrap;rounded=0;fontSize=14;" parent="1" vertex="1">
                    <mxGeometry x="407" y="-31" width="80" height="30" as="geometry"/>
                </mxCell>
                <mxCell id="10" value="344e" style="text;html=1;strokeColor=none;fillColor=none;align=center;verticalAlign=middle;whiteSpace=wrap;rounded=0;fontSize=14;" parent="1" vertex="1">
                    <mxGeometry x="417" y="39" width="60" height="30" as="geometry"/>
                </mxCell>
                <mxCell id="13" value="一个节点对应一次commit&lt;br style=&quot;font-size: 15px;&quot;&gt;每个节点都代表了代码库在当次提交时的完整快照" style="text;html=1;strokeColor=#666666;fillColor=#f5f5f5;align=center;verticalAlign=middle;whiteSpace=wrap;rounded=0;fontColor=#333333;fontSize=15;" parent="1" vertex="1">
                    <mxGeometry x="238" y="206" width="340" height="50" as="geometry"/>
                </mxCell>
                <mxCell id="23" style="edgeStyle=none;html=1;exitX=1;exitY=0.5;exitDx=0;exitDy=0;entryX=0;entryY=0.5;entryDx=0;entryDy=0;fontSize=14;fillColor=#fff2cc;strokeColor=#d6b656;" parent="1" source="17" target="20" edge="1">
                    <mxGeometry relative="1" as="geometry"/>
                </mxCell>
                <mxCell id="17" value="" style="ellipse;whiteSpace=wrap;html=1;aspect=fixed;fillColor=#fff2cc;strokeColor=#d6b656;fontSize=14;" parent="1" vertex="1">
                    <mxGeometry x="428" y="119" width="40" height="40" as="geometry"/>
                </mxCell>
                <mxCell id="18" value="modify a" style="text;html=1;strokeColor=none;fillColor=none;align=center;verticalAlign=middle;whiteSpace=wrap;rounded=0;fontSize=14;" parent="1" vertex="1">
                    <mxGeometry x="407" y="89" width="80" height="30" as="geometry"/>
                </mxCell>
                <mxCell id="19" value="2f40" style="text;html=1;strokeColor=none;fillColor=none;align=center;verticalAlign=middle;whiteSpace=wrap;rounded=0;fontSize=14;" parent="1" vertex="1">
                    <mxGeometry x="417" y="159" width="60" height="30" as="geometry"/>
                </mxCell>
                <mxCell id="20" value="" style="ellipse;whiteSpace=wrap;html=1;aspect=fixed;fillColor=#fff2cc;strokeColor=#d6b656;fontSize=14;" parent="1" vertex="1">
                    <mxGeometry x="548" y="119" width="40" height="40" as="geometry"/>
                </mxCell>
                <mxCell id="21" value="add c" style="text;html=1;strokeColor=none;fillColor=none;align=center;verticalAlign=middle;whiteSpace=wrap;rounded=0;fontSize=14;" parent="1" vertex="1">
                    <mxGeometry x="527" y="89" width="80" height="30" as="geometry"/>
                </mxCell>
                <mxCell id="22" value="23e1" style="text;html=1;strokeColor=none;fillColor=none;align=center;verticalAlign=middle;whiteSpace=wrap;rounded=0;fontSize=14;" parent="1" vertex="1">
                    <mxGeometry x="537" y="159" width="60" height="30" as="geometry"/>
                </mxCell>
                <mxCell id="27" style="edgeStyle=none;html=1;exitX=0.5;exitY=1;exitDx=0;exitDy=0;entryX=1;entryY=0;entryDx=0;entryDy=0;fontSize=14;fillColor=#d5e8d4;gradientColor=#97d077;strokeColor=#82b366;dashed=1;" parent="1" source="25" target="8" edge="1">
                    <mxGeometry relative="1" as="geometry"/>
                </mxCell>
                <mxCell id="25" value="main分支" style="rounded=1;whiteSpace=wrap;html=1;fontSize=14;fillColor=#d5e8d4;gradientColor=#97d077;strokeColor=#82b366;" parent="1" vertex="1">
                    <mxGeometry x="477" y="-71" width="70" height="40" as="geometry"/>
                </mxCell>
                <mxCell id="28" style="edgeStyle=none;html=1;exitX=0.5;exitY=1;exitDx=0;exitDy=0;entryX=0.5;entryY=1;entryDx=0;entryDy=0;fontSize=14;fillColor=#ffcd28;gradientColor=#ffa500;strokeColor=#d79b00;dashed=1;" parent="1" source="26" target="21" edge="1">
                    <mxGeometry relative="1" as="geometry"/>
                </mxCell>
                <mxCell id="26" value="hwoll分支" style="rounded=1;whiteSpace=wrap;html=1;fontSize=14;fillColor=#ffcd28;gradientColor=#ffa500;strokeColor=#d79b00;" parent="1" vertex="1">
                    <mxGeometry x="588" y="39" width="70" height="40" as="geometry"/>
                </mxCell>
                <mxCell id="29" value="TestGit项目 提交记录" style="rounded=0;whiteSpace=wrap;html=1;fontSize=15;fillColor=#f9f7ed;strokeColor=#36393d;" parent="1" vertex="1">
                    <mxGeometry x="350" y="-140" width="150" height="40" as="geometry"/>
                </mxCell>
                <mxCell id="30" value="" style="endArrow=none;html=1;dashed=1;fontSize=14;strokeColor=none;" parent="1" edge="1">
                    <mxGeometry width="50" height="50" relative="1" as="geometry">
                        <mxPoint x="5" y="549" as="sourcePoint"/>
                        <mxPoint x="845" y="549" as="targetPoint"/>
                    </mxGeometry>
                </mxCell>
                <mxCell id="32" value="" style="endArrow=none;html=1;dashed=1;fontSize=14;strokeColor=none;" parent="1" edge="1">
                    <mxGeometry width="50" height="50" relative="1" as="geometry">
                        <mxPoint y="-150" as="sourcePoint"/>
                        <mxPoint x="840" y="-150" as="targetPoint"/>
                    </mxGeometry>
                </mxCell>
                <mxCell id="45" value="各次commit说明" style="shape=table;startSize=30;container=1;collapsible=0;childLayout=tableLayout;fontStyle=1;align=center;labelBackgroundColor=none;fontSize=15;fillColor=#f8cecc;gradientColor=#ea6b66;strokeColor=#b85450;" vertex="1" parent="1">
                    <mxGeometry x="168" y="300" width="507" height="230" as="geometry"/>
                </mxCell>
                <mxCell id="46" value="" style="shape=tableRow;horizontal=0;startSize=0;swimlaneHead=0;swimlaneBody=0;top=0;left=0;bottom=0;right=0;collapsible=0;dropTarget=0;fillColor=none;points=[[0,0.5],[1,0.5]];portConstraint=eastwest;labelBackgroundColor=none;fontSize=14;" vertex="1" parent="45">
                    <mxGeometry y="30" width="507" height="40" as="geometry"/>
                </mxCell>
                <mxCell id="58" value="Initial Commit" style="shape=partialRectangle;html=1;whiteSpace=wrap;connectable=0;fillColor=#dae8fc;top=0;left=0;bottom=0;right=0;overflow=hidden;labelBackgroundColor=none;fontSize=15;strokeColor=#6c8ebf;" vertex="1" parent="46">
                    <mxGeometry width="112" height="40" as="geometry">
                        <mxRectangle width="112" height="40" as="alternateBounds"/>
                    </mxGeometry>
                </mxCell>
                <mxCell id="47" value="&lt;span style=&quot;color: rgb(13, 13, 13); font-family: Söhne, ui-sans-serif, system-ui, -apple-system, &amp;quot;Segoe UI&amp;quot;, Roboto, Ubuntu, Cantarell, &amp;quot;Noto Sans&amp;quot;, sans-serif, &amp;quot;Helvetica Neue&amp;quot;, Arial, &amp;quot;Apple Color Emoji&amp;quot;, &amp;quot;Segoe UI Emoji&amp;quot;, &amp;quot;Segoe UI Symbol&amp;quot;, &amp;quot;Noto Color Emoji&amp;quot;; caret-color: rgb(13, 13, 13); font-size: 15px;&quot;&gt;在GitHub上新建项目时，进行了初始提交，包括创建了.gitignore文件和README.md文件。&lt;/span&gt;" style="shape=partialRectangle;html=1;whiteSpace=wrap;connectable=0;fillColor=#dae8fc;top=0;left=0;bottom=0;right=0;overflow=hidden;labelBackgroundColor=none;fontSize=15;strokeColor=#6c8ebf;" vertex="1" parent="46">
                    <mxGeometry x="112" width="395" height="40" as="geometry">
                        <mxRectangle width="395" height="40" as="alternateBounds"/>
                    </mxGeometry>
                </mxCell>
                <mxCell id="50" value="" style="shape=tableRow;horizontal=0;startSize=0;swimlaneHead=0;swimlaneBody=0;top=0;left=0;bottom=0;right=0;collapsible=0;dropTarget=0;fillColor=none;points=[[0,0.5],[1,0.5]];portConstraint=eastwest;labelBackgroundColor=none;fontSize=14;" vertex="1" parent="45">
                    <mxGeometry y="70" width="507" height="40" as="geometry"/>
                </mxCell>
                <mxCell id="59" value="add a" style="shape=partialRectangle;html=1;whiteSpace=wrap;connectable=0;fillColor=#dae8fc;top=0;left=0;bottom=0;right=0;overflow=hidden;labelBackgroundColor=none;fontSize=15;strokeColor=#6c8ebf;" vertex="1" parent="50">
                    <mxGeometry width="112" height="40" as="geometry">
                        <mxRectangle width="112" height="40" as="alternateBounds"/>
                    </mxGeometry>
                </mxCell>
                <mxCell id="51" value="创建 a 文件，文件内容为：&quot;I am aaa&quot;" style="shape=partialRectangle;html=1;whiteSpace=wrap;connectable=0;fillColor=#dae8fc;top=0;left=0;bottom=0;right=0;overflow=hidden;labelBackgroundColor=none;fontSize=15;strokeColor=#6c8ebf;" vertex="1" parent="50">
                    <mxGeometry x="112" width="395" height="40" as="geometry">
                        <mxRectangle width="395" height="40" as="alternateBounds"/>
                    </mxGeometry>
                </mxCell>
                <mxCell id="67" style="shape=tableRow;horizontal=0;startSize=0;swimlaneHead=0;swimlaneBody=0;top=0;left=0;bottom=0;right=0;collapsible=0;dropTarget=0;fillColor=none;points=[[0,0.5],[1,0.5]];portConstraint=eastwest;labelBackgroundColor=none;fontSize=14;" vertex="1" parent="45">
                    <mxGeometry y="110" width="507" height="40" as="geometry"/>
                </mxCell>
                <mxCell id="68" value="add b" style="shape=partialRectangle;html=1;whiteSpace=wrap;connectable=0;fillColor=#d5e8d4;top=0;left=0;bottom=0;right=0;overflow=hidden;labelBackgroundColor=none;fontSize=15;strokeColor=#82b366;" vertex="1" parent="67">
                    <mxGeometry width="112" height="40" as="geometry">
                        <mxRectangle width="112" height="40" as="alternateBounds"/>
                    </mxGeometry>
                </mxCell>
                <mxCell id="69" value="创建 b 文件，文件内容为：&quot;I am bbb&quot;" style="shape=partialRectangle;html=1;whiteSpace=wrap;connectable=0;fillColor=#d5e8d4;top=0;left=0;bottom=0;right=0;overflow=hidden;labelBackgroundColor=none;fontSize=15;strokeColor=#82b366;" vertex="1" parent="67">
                    <mxGeometry x="112" width="395" height="40" as="geometry">
                        <mxRectangle width="395" height="40" as="alternateBounds"/>
                    </mxGeometry>
                </mxCell>
                <mxCell id="73" style="shape=tableRow;horizontal=0;startSize=0;swimlaneHead=0;swimlaneBody=0;top=0;left=0;bottom=0;right=0;collapsible=0;dropTarget=0;fillColor=none;points=[[0,0.5],[1,0.5]];portConstraint=eastwest;labelBackgroundColor=none;fontSize=14;" vertex="1" parent="45">
                    <mxGeometry y="150" width="507" height="40" as="geometry"/>
                </mxCell>
                <mxCell id="74" value="modify a" style="shape=partialRectangle;html=1;whiteSpace=wrap;connectable=0;fillColor=#fff2cc;top=0;left=0;bottom=0;right=0;overflow=hidden;labelBackgroundColor=none;fontSize=15;strokeColor=#d6b656;" vertex="1" parent="73">
                    <mxGeometry width="112" height="40" as="geometry">
                        <mxRectangle width="112" height="40" as="alternateBounds"/>
                    </mxGeometry>
                </mxCell>
                <mxCell id="75" value="修改 a 文件，修改后文件内容为：&lt;br style=&quot;font-size: 15px;&quot;&gt;&quot;I am aaa, modified from branch hwoll&quot;" style="shape=partialRectangle;html=1;whiteSpace=wrap;connectable=0;fillColor=#fff2cc;top=0;left=0;bottom=0;right=0;overflow=hidden;labelBackgroundColor=none;fontSize=15;strokeColor=#d6b656;" vertex="1" parent="73">
                    <mxGeometry x="112" width="395" height="40" as="geometry">
                        <mxRectangle width="395" height="40" as="alternateBounds"/>
                    </mxGeometry>
                </mxCell>
                <mxCell id="70" style="shape=tableRow;horizontal=0;startSize=0;swimlaneHead=0;swimlaneBody=0;top=0;left=0;bottom=0;right=0;collapsible=0;dropTarget=0;fillColor=none;points=[[0,0.5],[1,0.5]];portConstraint=eastwest;labelBackgroundColor=none;fontSize=14;" vertex="1" parent="45">
                    <mxGeometry y="190" width="507" height="40" as="geometry"/>
                </mxCell>
                <mxCell id="71" value="add c" style="shape=partialRectangle;html=1;whiteSpace=wrap;connectable=0;fillColor=#fff2cc;top=0;left=0;bottom=0;right=0;overflow=hidden;labelBackgroundColor=none;fontSize=15;strokeColor=#d6b656;" vertex="1" parent="70">
                    <mxGeometry width="112" height="40" as="geometry">
                        <mxRectangle width="112" height="40" as="alternateBounds"/>
                    </mxGeometry>
                </mxCell>
                <mxCell id="72" value="创建 c 文件，文件内容为：&quot;I am ccc&quot;" style="shape=partialRectangle;html=1;whiteSpace=wrap;connectable=0;fillColor=#fff2cc;top=0;left=0;bottom=0;right=0;overflow=hidden;labelBackgroundColor=none;fontSize=15;strokeColor=#d6b656;" vertex="1" parent="70">
                    <mxGeometry x="112" width="395" height="40" as="geometry">
                        <mxRectangle width="395" height="40" as="alternateBounds"/>
                    </mxGeometry>
                </mxCell>
            </root>
        </mxGraphModel>
    </diagram>
</mxfile>